<svg width="100" height="30" viewBox="0 0 100 30" fill="none" xmlns="http://www.w3.org/2000/svg">
<path d="M12.6455 22V8.01562H18.4121L22.6719 17.1562L26.9316 8.01562H32.6875V22H29.332V11.5L24.7324 22H20.582L15.9902 11.5V22H12.6455Z" fill="white"/>
<path d="M40.3011 12.9062C41.514 12.9062 42.5081 12.5039 43.2835 11.6992C44.0589 10.8945 44.4466 9.84375 44.4466 8.54688V8.01562H35.9603V8.54688C35.9603 9.84375 36.3479 10.8945 37.1234 11.6992C37.8987 12.5039 38.9036 12.9062 40.3011 12.9062ZM47.7669 22L45.2474 15.1562H35.179L32.6595 22H28.9779L37.8548 5.03125H42.5814L51.4583 22H47.7669Z" fill="white"/>
<path d="M64.501 16.0156C65.2861 16.0156 65.9346 15.8828 66.4463 15.6172C66.958 15.3405 67.3086 14.9219 67.498 14.3613L67.8809 15.125H71.6045L68.1963 8.45312C67.7178 7.61719 67.0107 7.00521 66.0752 6.61719C65.1509 6.22917 64.1357 6.03516 62.999 6.03516C61.5205 6.03516 60.2607 6.34375 59.2197 6.96094C58.1787 7.56702 57.4033 8.40234 56.8916 9.46094L59.8564 10.8281C60.0234 10.4948 60.2695 10.2188 60.5947 10C60.9199 9.78125 61.3223 9.61458 61.7907 9.50521C62.2591 9.39583 62.7165 9.34049 63.1628 9.34049C63.8913 9.34049 64.4681 9.53437 64.8932 9.92188C65.3294 10.2983 65.5475 10.8281 65.5475 11.5156V11.7344C65.5475 12.0104 65.4704 12.2865 65.3151 12.5625C65.1608 12.8271 64.9056 13.0827 64.5495 13.3281L61.3952 15.3281C60.4039 15.9948 59.6413 16.7188 59.1071 17.5C58.584 18.2812 58.3229 19.1217 58.3229 20.0208C58.3229 21.0104 58.6315 21.8151 59.2487 22.4323C59.877 23.0495 60.7135 23.4635 61.7585 23.6719V25H63.487V23.6875C64.8171 23.5312 65.8229 23.0677 66.5046 22.2969C67.1973 21.526 67.5436 20.5781 67.5436 19.4531C67.5436 18.6077 67.3086 17.9158 66.8398 17.3783C66.3822 16.8296 65.7337 16.4531 64.8932 16.25H64.501V16.0156Z" fill="white"/>
<path d="M80.0963 12.9062C81.3092 12.9062 82.3033 12.5039 83.0787 11.6992C83.8541 10.8945 84.2418 9.84375 84.2418 8.54688V8.01562H75.7554V8.54688C75.7554 9.84375 76.1431 10.8945 76.9185 11.6992C77.6939 12.5039 78.6988 12.9062 80.0963 12.9062ZM87.5621 22L85.0426 15.1562H74.9742L72.4547 22H68.773L77.6499 5.03125H82.3765L91.2534 22H87.5621Z" fill="white"/>
<path d="M7.25868 0.0546875C6.22917 0.0546875 5.30486 0.248021 4.48633 0.635417C3.67903 1.01198 2.99288 1.53479 2.42871 2.19729L0 0.679688V28.6797L2.51953 27.0547C3.01693 27.7624 3.67903 28.3171 4.48633 28.7056C5.30486 29.0947 6.22917 29.2891 7.25868 29.2891C9.03581 29.2891 10.5365 28.7244 11.7607 27.5953C12.9961 26.4549 13.6143 24.8613 13.6143 22.8145V6.53125C13.6143 4.48438 12.9961 2.89062 11.7607 1.75C10.5365 0.609375 9.03581 0.0546875 7.25868 0.0546875Z" fill="#A5CC3A"/>
</svg>